<?xml version="1.0" encoding="UTF-8"?>
<svg width="306px" height="306px" viewBox="0 0 306 306" version="1.1" xmlns="http://www.w3.org/2000/svg" xmlns:xlink="http://www.w3.org/1999/xlink">
    <!-- Generator: Sketch 55.2 (78181) - https://sketchapp.com -->
    <title>icon</title>
    <desc>Created with Sketch.</desc>
    <g id="icon" stroke="none" stroke-width="1" fill="none" fill-rule="evenodd">
        <path d="M194.391972,289 L122.2,289 L122.2,168.050867 L194.391972,289 L194.391972,289 Z M112.7,289 L31.21875,289 L31.21875,166.862732 L108.5625,166.862732 C109.976299,166.862732 111.351407,166.843398 112.7,166.810814 L112.7,289 Z M154,157.915004 C183.105944,145.551941 199.757576,120.31881 199.757576,87.2364979 C199.757576,53.8751932 184.081007,29.3543623 156.428384,17 L197.004102,17 C245.19538,17 276,44.5048003 276,87.4575021 C276,130.410204 245.006394,157.915004 197.004102,157.915004 L154,157.915004 Z M122,17.9993972 C164.362381,22.460256 190,48.07713 190,87.4551231 C190,126.84714 164.505474,152.468235 122,156.915607 L122,17.9993972 Z M113,17.062712 L113,157.85276 C111.618164,157.894184 110.220825,157.915004 108.808229,157.915004 L31,157.915004 L31,17 L108.808229,17 C110.220638,17 111.617982,17.0209768 113,17.062712 L113,17.062712 Z" id="rp" fill="#000000"></path>
    </g>
</svg>