<?xml version="1.0" standalone="no"?>
<!DOCTYPE svg PUBLIC "-//W3C//DTD SVG 20010904//EN"
 "http://www.w3.org/TR/2001/REC-SVG-20010904/DTD/svg10.dtd">
<svg version="1.0" xmlns="http://www.w3.org/2000/svg"
 width="700.000000pt" height="700.000000pt" viewBox="0 0 700.000000 700.000000"
 preserveAspectRatio="xMidYMid meet">
<metadata>
Created by potrace 1.11, written by Peter Selinger 2001-2013
</metadata>
<g transform="translate(0.000000,700.000000) scale(0.100000,-0.100000)"
fill="#000000" stroke="none">
<path d="M543 6390 c-54 -11 -168 -57 -218 -88 -156 -97 -272 -263 -309 -444
-13 -64 -16 -158 -16 -560 0 -532 -1 -525 63 -572 28 -21 40 -21 568 -24 l539
-3 2 -1762 3 -1762 26 -77 c41 -118 94 -205 178 -289 83 -83 160 -132 273
-176 l73 -28 1800 0 1800 0 73 27 c109 40 177 84 267 173 135 134 196 284 196
480 0 119 -17 192 -70 300 -87 176 -245 307 -437 360 -39 11 -118 18 -236 22
l-178 6 0 641 0 641 108 0 c129 0 215 24 312 86 46 29 260 236 744 717 373
373 706 709 740 749 129 149 181 332 143 509 -18 82 -139 379 -169 411 -17 19
-262 127 -373 164 -62 21 -257 18 -325 -5 -143 -48 -145 -50 -677 -579 l-502
-500 -3 509 c-5 570 -4 560 -79 712 -91 180 -269 318 -467 361 -63 13 -3781
14 -3849 1z m367 -288 c109 -43 205 -146 240 -259 19 -61 20 -93 20 -464 l0
-399 -450 0 -450 0 0 368 c0 202 5 396 10 432 26 164 146 296 305 337 77 19
257 11 325 -15z m3462 8 c87 -27 167 -86 217 -161 58 -87 71 -139 71 -291 l0
-128 -1603 0 -1604 0 -7 143 c-9 193 -42 313 -116 425 l-22 32 1500 0 c1467 0
1501 0 1564 -20z m2122 -531 l124 -52 52 -131 c45 -111 53 -140 53 -196 0
-124 -11 -140 -332 -462 l-286 -288 -184 0 -185 0 191 193 c199 201 222 234
208 297 -15 70 -90 118 -163 105 -32 -6 -117 -86 -683 -652 l-646 -645 -18 97
c-19 109 -15 174 16 245 15 35 177 202 737 763 394 395 733 728 752 740 99 62
191 58 364 -14z m-1834 -691 l0 -361 -108 -111 c-215 -221 -247 -351 -177
-717 l35 -184 -267 -267 -268 -268 -478 0 c-528 0 -518 1 -557 -63 -39 -63
-19 -150 43 -187 31 -19 54 -20 554 -20 343 0 531 4 550 11 15 5 161 143 325
306 269 269 298 295 322 289 l26 -6 0 -670 0 -670 -1411 0 c-1281 0 -1414 -1
-1445 -16 -67 -32 -95 -109 -65 -182 19 -46 67 -71 155 -81 365 -41 506 -475
233 -721 -211 -190 -560 -86 -658 198 -20 57 -20 98 -19 3865 l0 217 1605 0
1605 0 0 -362z m870 -1012 c-342 -340 -352 -348 -475 -349 -38 0 -103 5 -143
13 l-73 13 313 314 313 313 185 0 185 0 -305 -304z m-179 -2222 c199 -95 288
-319 209 -529 -31 -82 -139 -190 -225 -225 l-60 -25 -1434 -3 -1433 -2 22 32
c12 18 34 60 50 94 99 209 77 483 -52 667 l-20 27 1439 -2 1438 -3 66 -31z"/>
<path d="M2074 4590 c-42 -17 -74 -68 -74 -118 0 -110 108 -177 197 -122 90
54 94 177 8 230 -33 21 -93 25 -131 10z"/>
<path d="M2603 4579 c-62 -39 -78 -135 -32 -193 46 -58 15 -56 794 -56 638 0
721 2 751 16 92 44 99 181 11 234 -31 19 -55 20 -762 20 -716 0 -731 -1 -762
-21z"/>
<path d="M1754 3751 c-88 -54 -79 -185 17 -233 32 -17 103 -18 1064 -18 961 0
1032 1 1064 18 96 48 105 179 17 233 -30 18 -71 19 -1081 19 -1010 0 -1051 -1
-1081 -19z"/>
<path d="M2050 3249 c-177 -35 -317 -197 -328 -379 -22 -378 430 -582 700
-316 198 194 141 541 -107 657 -95 45 -173 56 -265 38z m157 -289 c114 -69 63
-253 -72 -253 -108 0 -176 108 -127 201 37 69 131 94 199 52z"/>
<path d="M2893 1404 c-46 -23 -73 -71 -73 -129 0 -42 5 -52 39 -86 l39 -39
1067 0 c1200 0 1106 -6 1146 77 24 49 19 98 -14 139 -44 56 0 54 -1129 54
-935 0 -1046 -2 -1075 -16z"/>
</g>
</svg>
